<svg width="44" height="43" viewBox="0 0 44 43" fill="none" xmlns="http://www.w3.org/2000/svg">
<path d="M22.4839 42.5C22.8352 42.5 23.1279 42.3825 23.3621 42.1476C23.5963 41.9126 23.7135 41.6189 23.7135 41.2664V3.02587C23.7135 2.32098 23.4792 1.73357 23.0108 1.26364C22.5034 0.754546 21.8983 0.5 21.1957 0.5H1.22959C0.878276 0.5 0.585517 0.617482 0.351309 0.852447C0.117103 1.08741 0 1.38112 0 1.73357V6.13916C0 6.49161 0.117103 6.78532 0.351309 7.02028C0.585517 7.25524 0.878276 7.37273 1.22959 7.37273H16.5701V18.3573H5.15255C4.80124 18.3573 4.50848 18.4748 4.27428 18.7098C4.04007 18.9448 3.92297 19.2385 3.92297 19.5909V23.7615C3.92297 24.114 4.04007 24.4077 4.27428 24.6427C4.50848 24.8776 4.80124 24.9951 5.15255 24.9951H16.5701V41.2664C16.5701 41.6189 16.6872 41.9126 16.9215 42.1476C17.1557 42.3825 17.4484 42.5 17.7997 42.5H22.4839Z" fill="#56B881"/>
<path d="M17.8274 42.5C17.4761 42.5 17.1833 42.3825 16.9491 42.1476C16.7149 41.9126 16.5978 41.6189 16.5978 41.2664V3.02587C16.5978 2.32098 16.832 1.73357 17.3004 1.26364C17.8079 0.754546 18.4129 0.5 19.1155 0.5H30.0647C32.4458 0.5 34.6317 1.06783 36.6225 2.2035C38.6132 3.33916 40.1941 4.88601 41.3652 6.84405C42.5362 8.8021 43.1217 10.9364 43.1217 13.2469C43.1217 16.0664 42.2825 18.5923 40.604 20.8245C38.9255 23.0175 36.7396 24.5252 34.0462 25.3476L43.7658 40.4441C43.9219 40.7182 44 40.9923 44 41.2664C44 41.6189 43.8634 41.9126 43.5901 42.1476C43.3559 42.3825 43.0437 42.5 42.6533 42.5H37.8521C37.1885 42.5 36.681 42.2259 36.3297 41.6776L26.6101 25.9937H23.7411V41.2664C23.7411 41.6189 23.624 41.9126 23.3898 42.1476C23.1556 42.3825 22.8628 42.5 22.5115 42.5H17.8274ZM29.7134 19.2385C31.509 19.2385 32.9728 18.6902 34.1048 17.5937C35.2758 16.458 35.8613 15.0287 35.8613 13.3056C35.8613 11.5434 35.2758 10.0944 34.1048 8.95874C32.9728 7.82308 31.509 7.25525 29.7134 7.25525H23.7411V19.2385H29.7134Z" fill="black"/>
</svg>
