<svg width="126" height="139" viewBox="0 0 126 139" fill="none" xmlns="http://www.w3.org/2000/svg">
<style>
path {
  fill: black;
}
@media (prefers-color-scheme: dark) {
  path {
    fill: white;
  }
}
</style>
<g filter="url(#filter0_d_9_149)">
<path d="M62.8514 124C63.6194 124 64.2594 123.744 64.7714 123.232C65.2834 122.72 65.5394 122.08 65.5394 121.312V37.984C65.5394 36.448 65.0274 35.168 64.0034 34.144C62.8941 33.0347 61.5714 32.48 60.0354 32.48H16.3874C15.6194 32.48 14.9794 32.736 14.4674 33.248C13.9554 33.76 13.6994 34.4 13.6994 35.168V44.768C13.6994 45.536 13.9554 46.176 14.4674 46.688C14.9794 47.2 15.6194 47.456 16.3874 47.456H49.9234V71.392H24.9634C24.1954 71.392 23.5554 71.648 23.0434 72.16C22.5314 72.672 22.2754 73.312 22.2754 74.08V83.168C22.2754 83.936 22.5314 84.576 23.0434 85.088C23.5554 85.6 24.1954 85.856 24.9634 85.856H49.9234V121.312C49.9234 122.08 50.1794 122.72 50.6914 123.232C51.2034 123.744 51.8434 124 52.6114 124H62.8514Z" />
<path d="M52.672 124C51.904 124 51.264 123.744 50.752 123.232C50.24 122.72 49.984 122.08 49.984 121.312V37.984C49.984 36.448 50.496 35.168 51.52 34.144C52.6293 33.0347 53.952 32.48 55.488 32.48H79.424C84.6293 32.48 89.408 33.7173 93.76 36.192C98.112 38.6667 101.568 42.0373 104.128 46.304C106.688 50.5707 107.968 55.2213 107.968 60.256C107.968 66.4 106.133 71.904 102.464 76.768C98.7947 81.5467 94.016 84.832 88.128 86.624L109.376 119.52C109.717 120.117 109.888 120.715 109.888 121.312C109.888 122.08 109.589 122.72 108.992 123.232C108.48 123.744 107.797 124 106.944 124H96.448C94.9973 124 93.888 123.403 93.12 122.208L71.872 88.032H65.6V121.312C65.6 122.08 65.344 122.72 64.832 123.232C64.32 123.744 63.68 124 62.912 124H52.672ZM78.656 73.312C82.5813 73.312 85.7813 72.1173 88.256 69.728C90.816 67.2533 92.096 64.1387 92.096 60.384C92.096 56.544 90.816 53.3867 88.256 50.912C85.7813 48.4373 82.5813 47.2 78.656 47.2H65.6V73.312H78.656Z" />
</g>
<defs>
<filter id="filter0_d_9_149" x="13.6992" y="32.4805" width="100.188" height="95.5195" filterUnits="userSpaceOnUse" color-interpolation-filters="sRGB">
<feFlood flood-opacity="0" result="BackgroundImageFix"/>
<feColorMatrix in="SourceAlpha" type="matrix" values="0 0 0 0 0 0 0 0 0 0 0 0 0 0 0 0 0 0 127 0" result="hardAlpha"/>
<feOffset dx="4" dy="4"/>
<feComposite in2="hardAlpha" operator="out"/>
<feColorMatrix type="matrix" values="0 0 0 0 0 0 0 0 0 0 0 0 0 0 0 0 0 0 0.25 0"/>
<feBlend mode="normal" in2="BackgroundImageFix" result="effect1_dropShadow_9_149"/>
<feBlend mode="normal" in="SourceGraphic" in2="effect1_dropShadow_9_149" result="shape"/>
</filter>
</defs>
</svg>
